<svg xmlns="http://www.w3.org/2000/svg" viewBox="0 0 100 100">
<g transform="translate(1, 1) scale(1.0889)">
	<path d="M 85 35.661 c -2.762 0 -5 -2.239 -5 -5 V 10 H 59.339 c -2.762 0 -5 -2.239 -5 -5 s 2.238 -5 5 -5 H 85 c 2.762 0 5 2.239 5 5 v 25.661 C 90 33.422 87.762 35.661 85 35.661 z" fill="#050505"/>
	<path d="M 33.678 61.322 c -1.28 0 -2.559 -0.488 -3.536 -1.465 c -1.953 -1.952 -1.953 -5.118 0 -7.07 L 81.465 1.464 c 1.951 -1.952 5.119 -1.952 7.07 0 c 1.953 1.953 1.953 5.119 0 7.071 L 37.214 59.857 C 36.237 60.834 34.958 61.322 33.678 61.322 z" fill="#050505"/>
	<path d="M 80 90 H 10 C 4.5 90 0 85.5 0 80 V 10 C 0 4.5 4.5 0 10 0 h 23.678 c 2.761 0 5 2.239 5 5 s -2.239 5 -5 5 H 10 v 70 h 70 V 56.322 c 0 -2.762 2.238 -5 5 -5 s 5 2.238 5 5 v 23.678 C 90 85.5 85.5 90 80 90 z" fill="#050505"/>
</g>
</svg>