<svg xmlns="http://www.w3.org/2000/svg" viewBox="0 0 100 100">
<rect width="100" height="100" rx="10" fill="#359cfe"/>
<g transform="scale(1.1111)">
	<path d="M 27.156 20.999 C 34.379 26.421 42.148 37.416 45 43.316 c 2.853 -5.9 10.621 -16.895 17.844 -22.317 c 5.212 -3.913 13.656 -6.94 13.656 2.693 c 0 1.924 -1.103 16.162 -1.75 18.473 c -2.249 8.036 -10.443 10.086 -17.732 8.845 C 69.759 53.179 73 60.362 66 67.544 c -13.294 13.642 -19.107 -3.423 -20.598 -7.795 c -0.273 -0.802 -0.401 -1.177 -0.403 -0.858 c -0.002 -0.319 -0.13 0.056 -0.403 0.858 c -1.49 4.373 -7.303 21.437 -20.598 7.795 c -7 -7.183 -3.759 -14.366 8.983 -16.534 c -7.289 1.241 -15.484 -0.809 -17.732 -8.845 c -0.647 -2.312 -1.75 -16.549 -1.75 -18.473 C 13.5 14.059 21.944 17.086 27.156 20.999 L 27.156 20.999 z" fill="#ffffff"/>
</g>
</svg>