<svg xmlns="http://www.w3.org/2000/svg" xmlns:xlink="http://www.w3.org/1999/xlink" version="1.1" width="256" height="256" viewBox="0 0 256 256" xml:space="preserve">
<g style="stroke: none; stroke-width: 0; stroke-dasharray: none; stroke-linecap: butt; stroke-linejoin: miter; stroke-miterlimit: 10; fill: none; fill-rule: nonzero; opacity: 1;" transform="translate(1.4065934065934016 1.4065934065934016) scale(2.81 2.81)">
	<linearGradient id="SVGID_1" gradientUnits="userSpaceOnUse" gradientTransform="matrix(1 0 0 -1 0 90.1102)" x1="45" y1="90.1102" x2="45" y2="0.1102">
<stop offset="0%" style="stop-color:rgb(99,100,255);stop-opacity: 1"/>
<stop offset="100%" style="stop-color:rgb(86,58,204);stop-opacity: 1"/>
</linearGradient>
<path d="M 86.89 19.925 c -1.301 -9.67 -9.729 -17.291 -19.72 -18.767 C 65.484 0.908 59.098 0 44.304 0 h -0.111 C 29.395 0 26.221 0.908 24.535 1.158 C 14.822 2.593 5.952 9.441 3.8 19.226 c -1.035 4.819 -1.146 10.161 -0.953 15.062 c 0.274 7.028 0.327 14.043 0.966 21.042 c 0.441 4.649 1.211 9.261 2.303 13.802 c 2.046 8.386 10.326 15.364 18.439 18.211 c 8.686 2.969 18.027 3.462 26.978 1.424 c 0.985 -0.229 1.957 -0.495 2.917 -0.798 c 2.177 -0.691 4.725 -1.465 6.599 -2.822 c 0.026 -0.019 0.047 -0.044 0.062 -0.072 c 0.015 -0.028 0.023 -0.06 0.024 -0.092 v -6.782 c 0 -0.03 -0.008 -0.059 -0.021 -0.086 s -0.032 -0.05 -0.056 -0.069 c -0.024 -0.018 -0.051 -0.031 -0.08 -0.038 c -0.029 -0.006 -0.059 -0.006 -0.089 0 c -5.734 1.369 -11.611 2.056 -17.507 2.045 c -10.146 0 -12.875 -4.815 -13.657 -6.819 c -0.628 -1.732 -1.027 -3.539 -1.186 -5.375 c -0.002 -0.031 0.004 -0.062 0.017 -0.09 c 0.012 -0.028 0.031 -0.053 0.055 -0.073 c 0.024 -0.02 0.052 -0.033 0.082 -0.04 s 0.061 -0.006 0.091 0.002 c 5.639 1.36 11.419 2.047 17.22 2.045 c 1.395 0 2.786 0 4.181 -0.037 c 5.834 -0.164 11.983 -0.462 17.723 -1.583 c 0.143 -0.029 0.286 -0.053 0.409 -0.09 c 9.054 -1.739 17.67 -7.195 18.546 -21.013 c 0.033 -0.544 0.115 -5.698 0.115 -6.263 C 86.984 38.799 87.598 27.108 86.89 19.925 z" style="stroke: none; stroke-width: 1; stroke-dasharray: none; stroke-linecap: butt; stroke-linejoin: miter; stroke-miterlimit: 10; fill: url(#SVGID_1); fill-rule: nonzero; opacity: 1;" transform=" matrix(1 0 0 1 0 0) " stroke-linecap="round"/>
	<path d="M 72.546 30.789 v 24.024 h -9.52 V 31.497 c 0 -4.909 -2.046 -7.412 -6.206 -7.412 c -4.574 0 -6.865 2.962 -6.865 8.811 v 12.763 h -9.463 V 32.896 c 0 -5.85 -2.295 -8.811 -6.869 -8.811 c -4.136 0 -6.202 2.503 -6.202 7.412 v 23.316 h -9.516 V 30.789 c 0 -4.909 1.253 -8.808 3.76 -11.699 c 2.586 -2.884 5.977 -4.365 10.187 -4.365 c 4.873 0 8.555 1.873 11.01 5.616 l 2.369 3.976 l 2.373 -3.976 c 2.455 -3.743 6.137 -5.616 11.001 -5.616 c 4.206 0 7.597 1.481 10.191 4.365 C 71.298 21.978 72.549 25.878 72.546 30.789 z" style="stroke: none; stroke-width: 1; stroke-dasharray: none; stroke-linecap: butt; stroke-linejoin: miter; stroke-miterlimit: 10; fill: rgb(255,255,255); fill-rule: nonzero; opacity: 1;" transform=" matrix(1 0 0 1 0 0) " stroke-linecap="round"/>
</g>
</svg>