<svg xmlns="http://www.w3.org/2000/svg" width="772" height="474" viewBox="0 0 772 474">
<rect width="772" height="474" fill="#fff"/>
<text x="14.0" y="20.0" font-family="'DejaVu Sans Mono','Lucida Console',Menlo,Consolas,monospace" font-size="13" fill="#111" text-anchor="start" font-weight="bold">A side table from each block to its copy</text>
<text x="48.6" y="57.0" font-family="'DejaVu Sans Mono','Lucida Console',Menlo,Consolas,monospace" font-size="11.5" fill="#777" text-anchor="end">from</text>
<rect x="58.6" y="36.0" width="87.4" height="34.0" fill="#eef1f5"/>
<rect x="58.6" y="36.0" width="20.0" height="34.0" fill="#dde3ea"/>
<rect x="58.6" y="36.0" width="87.4" height="34.0" fill="none" stroke="#777" stroke-width="1.2"/>
<line x1="78.6" y1="36.0" x2="78.6" y2="70.0" stroke="#777" stroke-width="1.2"/>
<text x="112.3" y="58.0" font-family="'DejaVu Sans Mono','Lucida Console',Menlo,Consolas,monospace" font-size="14" fill="#111" text-anchor="middle" font-weight="bold">A</text>
<rect x="146.0" y="36.0" width="87.4" height="34.0" fill="#eef1f5"/>
<rect x="146.0" y="36.0" width="20.0" height="34.0" fill="#dde3ea"/>
<rect x="146.0" y="36.0" width="87.4" height="34.0" fill="none" stroke="#777" stroke-width="1.2"/>
<line x1="166.0" y1="36.0" x2="166.0" y2="70.0" stroke="#777" stroke-width="1.2"/>
<text x="199.8" y="58.0" font-family="'DejaVu Sans Mono','Lucida Console',Menlo,Consolas,monospace" font-size="14" fill="#111" text-anchor="middle" font-weight="bold">B</text>
<rect x="233.5" y="36.0" width="87.4" height="34.0" fill="#eef1f5"/>
<rect x="233.5" y="36.0" width="20.0" height="34.0" fill="#dde3ea"/>
<rect x="233.5" y="36.0" width="87.4" height="34.0" fill="none" stroke="#777" stroke-width="1.2"/>
<line x1="253.5" y1="36.0" x2="253.5" y2="70.0" stroke="#777" stroke-width="1.2"/>
<text x="287.2" y="58.0" font-family="'DejaVu Sans Mono','Lucida Console',Menlo,Consolas,monospace" font-size="14" fill="#111" text-anchor="middle" font-weight="bold">C</text>
<rect x="320.9" y="36.0" width="87.4" height="34.0" fill="#eef1f5"/>
<rect x="320.9" y="36.0" width="20.0" height="34.0" fill="#dde3ea"/>
<rect x="320.9" y="36.0" width="87.4" height="34.0" fill="none" stroke="#777" stroke-width="1.2"/>
<line x1="340.9" y1="36.0" x2="340.9" y2="70.0" stroke="#777" stroke-width="1.2"/>
<text x="374.6" y="58.0" font-family="'DejaVu Sans Mono','Lucida Console',Menlo,Consolas,monospace" font-size="14" fill="#111" text-anchor="middle" font-weight="bold">D</text>
<rect x="408.3" y="36.0" width="87.4" height="34.0" fill="#eef1f5"/>
<rect x="408.3" y="36.0" width="20.0" height="34.0" fill="#dde3ea"/>
<rect x="408.3" y="36.0" width="87.4" height="34.0" fill="none" stroke="#777" stroke-width="1.2"/>
<line x1="428.3" y1="36.0" x2="428.3" y2="70.0" stroke="#777" stroke-width="1.2"/>
<text x="462.0" y="58.0" font-family="'DejaVu Sans Mono','Lucida Console',Menlo,Consolas,monospace" font-size="14" fill="#111" text-anchor="middle" font-weight="bold">E</text>
<rect x="495.7" y="36.0" width="87.4" height="34.0" fill="#eef1f5"/>
<rect x="495.7" y="36.0" width="20.0" height="34.0" fill="#dde3ea"/>
<rect x="495.7" y="36.0" width="87.4" height="34.0" fill="none" stroke="#777" stroke-width="1.2"/>
<line x1="515.7" y1="36.0" x2="515.7" y2="70.0" stroke="#777" stroke-width="1.2"/>
<text x="549.4" y="58.0" font-family="'DejaVu Sans Mono','Lucida Console',Menlo,Consolas,monospace" font-size="14" fill="#111" text-anchor="middle" font-weight="bold">F</text>
<rect x="583.2" y="36.0" width="87.4" height="34.0" fill="#eef1f5"/>
<rect x="583.2" y="36.0" width="20.0" height="34.0" fill="#dde3ea"/>
<rect x="583.2" y="36.0" width="87.4" height="34.0" fill="none" stroke="#777" stroke-width="1.2"/>
<line x1="603.2" y1="36.0" x2="603.2" y2="70.0" stroke="#777" stroke-width="1.2"/>
<text x="636.9" y="58.0" font-family="'DejaVu Sans Mono','Lucida Console',Menlo,Consolas,monospace" font-size="14" fill="#111" text-anchor="middle" font-weight="bold">G</text>
<rect x="670.6" y="36.0" width="87.4" height="34.0" fill="#eef1f5"/>
<rect x="670.6" y="36.0" width="20.0" height="34.0" fill="#dde3ea"/>
<rect x="670.6" y="36.0" width="87.4" height="34.0" fill="none" stroke="#777" stroke-width="1.2"/>
<line x1="690.6" y1="36.0" x2="690.6" y2="70.0" stroke="#777" stroke-width="1.2"/>
<text x="724.3" y="58.0" font-family="'DejaVu Sans Mono','Lucida Console',Menlo,Consolas,monospace" font-size="14" fill="#111" text-anchor="middle" font-weight="bold">H</text>
<text x="48.6" y="127.0" font-family="'DejaVu Sans Mono','Lucida Console',Menlo,Consolas,monospace" font-size="11.5" fill="#777" text-anchor="end">table</text>
<rect x="58.6" y="106.0" width="17.5" height="34.0" fill="#cc2222"/>
<rect x="76.1" y="106.0" width="17.5" height="34.0" fill="#cfe0f5"/>
<text x="67.4" y="128.0" font-family="'DejaVu Sans Mono','Lucida Console',Menlo,Consolas,monospace" font-size="12" fill="#fff" text-anchor="middle" font-weight="bold">F</text>
<rect x="58.6" y="106.0" width="35.0" height="34.0" fill="none" stroke="#bbb" stroke-width="1.2"/>
<line x1="76.1" y1="106.0" x2="76.1" y2="140.0" stroke="#bbb" stroke-width="1.2"/>
<rect x="93.6" y="106.0" width="17.5" height="34.0" fill="#f7f9fb"/>
<rect x="111.1" y="106.0" width="17.5" height="34.0" fill="#f7f9fb"/>
<rect x="93.6" y="106.0" width="35.0" height="34.0" fill="none" stroke="#bbb" stroke-width="1.2"/>
<line x1="111.1" y1="106.0" x2="111.1" y2="140.0" stroke="#bbb" stroke-width="1.2"/>
<rect x="128.6" y="106.0" width="17.5" height="34.0" fill="#cc2222"/>
<rect x="146.0" y="106.0" width="17.5" height="34.0" fill="#cfe0f5"/>
<text x="137.3" y="128.0" font-family="'DejaVu Sans Mono','Lucida Console',Menlo,Consolas,monospace" font-size="12" fill="#fff" text-anchor="middle" font-weight="bold">B</text>
<rect x="128.6" y="106.0" width="35.0" height="34.0" fill="none" stroke="#bbb" stroke-width="1.2"/>
<line x1="146.0" y1="106.0" x2="146.0" y2="140.0" stroke="#bbb" stroke-width="1.2"/>
<rect x="163.5" y="106.0" width="17.5" height="34.0" fill="#f7f9fb"/>
<rect x="181.0" y="106.0" width="17.5" height="34.0" fill="#f7f9fb"/>
<rect x="163.5" y="106.0" width="35.0" height="34.0" fill="none" stroke="#bbb" stroke-width="1.2"/>
<line x1="181.0" y1="106.0" x2="181.0" y2="140.0" stroke="#bbb" stroke-width="1.2"/>
<rect x="198.5" y="106.0" width="17.5" height="34.0" fill="#cc2222"/>
<rect x="216.0" y="106.0" width="17.5" height="34.0" fill="#cfe0f5"/>
<text x="207.2" y="128.0" font-family="'DejaVu Sans Mono','Lucida Console',Menlo,Consolas,monospace" font-size="12" fill="#fff" text-anchor="middle" font-weight="bold">H</text>
<rect x="198.5" y="106.0" width="35.0" height="34.0" fill="none" stroke="#bbb" stroke-width="1.2"/>
<line x1="216.0" y1="106.0" x2="216.0" y2="140.0" stroke="#bbb" stroke-width="1.2"/>
<rect x="233.5" y="106.0" width="17.5" height="34.0" fill="#f7f9fb"/>
<rect x="251.0" y="106.0" width="17.5" height="34.0" fill="#f7f9fb"/>
<rect x="233.5" y="106.0" width="35.0" height="34.0" fill="none" stroke="#bbb" stroke-width="1.2"/>
<line x1="251.0" y1="106.0" x2="251.0" y2="140.0" stroke="#bbb" stroke-width="1.2"/>
<rect x="268.4" y="106.0" width="17.5" height="34.0" fill="#cc2222"/>
<rect x="285.9" y="106.0" width="17.5" height="34.0" fill="#cfe0f5"/>
<text x="277.2" y="128.0" font-family="'DejaVu Sans Mono','Lucida Console',Menlo,Consolas,monospace" font-size="12" fill="#fff" text-anchor="middle" font-weight="bold">D</text>
<rect x="268.4" y="106.0" width="35.0" height="34.0" fill="none" stroke="#bbb" stroke-width="1.2"/>
<line x1="285.9" y1="106.0" x2="285.9" y2="140.0" stroke="#bbb" stroke-width="1.2"/>
<rect x="303.4" y="106.0" width="17.5" height="34.0" fill="#f7f9fb"/>
<rect x="320.9" y="106.0" width="17.5" height="34.0" fill="#f7f9fb"/>
<rect x="303.4" y="106.0" width="35.0" height="34.0" fill="none" stroke="#bbb" stroke-width="1.2"/>
<line x1="320.9" y1="106.0" x2="320.9" y2="140.0" stroke="#bbb" stroke-width="1.2"/>
<rect x="338.4" y="106.0" width="17.5" height="34.0" fill="#f7f9fb"/>
<rect x="355.9" y="106.0" width="17.5" height="34.0" fill="#f7f9fb"/>
<rect x="338.4" y="106.0" width="35.0" height="34.0" fill="none" stroke="#bbb" stroke-width="1.2"/>
<line x1="355.9" y1="106.0" x2="355.9" y2="140.0" stroke="#bbb" stroke-width="1.2"/>
<rect x="373.3" y="106.0" width="17.5" height="34.0" fill="#cc2222"/>
<rect x="390.8" y="106.0" width="17.5" height="34.0" fill="#cfe0f5"/>
<text x="382.1" y="128.0" font-family="'DejaVu Sans Mono','Lucida Console',Menlo,Consolas,monospace" font-size="12" fill="#fff" text-anchor="middle" font-weight="bold">E</text>
<rect x="373.3" y="106.0" width="35.0" height="34.0" fill="none" stroke="#bbb" stroke-width="1.2"/>
<line x1="390.8" y1="106.0" x2="390.8" y2="140.0" stroke="#bbb" stroke-width="1.2"/>
<rect x="408.3" y="106.0" width="17.5" height="34.0" fill="#f7f9fb"/>
<rect x="425.8" y="106.0" width="17.5" height="34.0" fill="#f7f9fb"/>
<rect x="408.3" y="106.0" width="35.0" height="34.0" fill="none" stroke="#bbb" stroke-width="1.2"/>
<line x1="425.8" y1="106.0" x2="425.8" y2="140.0" stroke="#bbb" stroke-width="1.2"/>
<rect x="443.3" y="106.0" width="17.5" height="34.0" fill="#f7f9fb"/>
<rect x="460.8" y="106.0" width="17.5" height="34.0" fill="#f7f9fb"/>
<rect x="443.3" y="106.0" width="35.0" height="34.0" fill="none" stroke="#bbb" stroke-width="1.2"/>
<line x1="460.8" y1="106.0" x2="460.8" y2="140.0" stroke="#bbb" stroke-width="1.2"/>
<rect x="478.3" y="106.0" width="17.5" height="34.0" fill="#f7f9fb"/>
<rect x="495.7" y="106.0" width="17.5" height="34.0" fill="#f7f9fb"/>
<rect x="478.3" y="106.0" width="35.0" height="34.0" fill="none" stroke="#bbb" stroke-width="1.2"/>
<line x1="495.7" y1="106.0" x2="495.7" y2="140.0" stroke="#bbb" stroke-width="1.2"/>
<rect x="513.2" y="106.0" width="17.5" height="34.0" fill="#cc2222"/>
<rect x="530.7" y="106.0" width="17.5" height="34.0" fill="#cfe0f5"/>
<text x="522.0" y="128.0" font-family="'DejaVu Sans Mono','Lucida Console',Menlo,Consolas,monospace" font-size="12" fill="#fff" text-anchor="middle" font-weight="bold">A</text>
<rect x="513.2" y="106.0" width="35.0" height="34.0" fill="none" stroke="#bbb" stroke-width="1.2"/>
<line x1="530.7" y1="106.0" x2="530.7" y2="140.0" stroke="#bbb" stroke-width="1.2"/>
<rect x="548.2" y="106.0" width="17.5" height="34.0" fill="#f7f9fb"/>
<rect x="565.7" y="106.0" width="17.5" height="34.0" fill="#f7f9fb"/>
<rect x="548.2" y="106.0" width="35.0" height="34.0" fill="none" stroke="#bbb" stroke-width="1.2"/>
<line x1="565.7" y1="106.0" x2="565.7" y2="140.0" stroke="#bbb" stroke-width="1.2"/>
<rect x="583.2" y="106.0" width="17.5" height="34.0" fill="#cc2222"/>
<rect x="600.6" y="106.0" width="17.5" height="34.0" fill="#cfe0f5"/>
<text x="591.9" y="128.0" font-family="'DejaVu Sans Mono','Lucida Console',Menlo,Consolas,monospace" font-size="12" fill="#fff" text-anchor="middle" font-weight="bold">G</text>
<rect x="583.2" y="106.0" width="35.0" height="34.0" fill="none" stroke="#bbb" stroke-width="1.2"/>
<line x1="600.6" y1="106.0" x2="600.6" y2="140.0" stroke="#bbb" stroke-width="1.2"/>
<rect x="618.1" y="106.0" width="17.5" height="34.0" fill="#f7f9fb"/>
<rect x="635.6" y="106.0" width="17.5" height="34.0" fill="#f7f9fb"/>
<rect x="618.1" y="106.0" width="35.0" height="34.0" fill="none" stroke="#bbb" stroke-width="1.2"/>
<line x1="635.6" y1="106.0" x2="635.6" y2="140.0" stroke="#bbb" stroke-width="1.2"/>
<rect x="653.1" y="106.0" width="17.5" height="34.0" fill="#cc2222"/>
<rect x="670.6" y="106.0" width="17.5" height="34.0" fill="#cfe0f5"/>
<text x="661.8" y="128.0" font-family="'DejaVu Sans Mono','Lucida Console',Menlo,Consolas,monospace" font-size="12" fill="#fff" text-anchor="middle" font-weight="bold">C</text>
<rect x="653.1" y="106.0" width="35.0" height="34.0" fill="none" stroke="#bbb" stroke-width="1.2"/>
<line x1="670.6" y1="106.0" x2="670.6" y2="140.0" stroke="#bbb" stroke-width="1.2"/>
<rect x="688.1" y="106.0" width="17.5" height="34.0" fill="#f7f9fb"/>
<rect x="705.5" y="106.0" width="17.5" height="34.0" fill="#f7f9fb"/>
<rect x="688.1" y="106.0" width="35.0" height="34.0" fill="none" stroke="#bbb" stroke-width="1.2"/>
<line x1="705.5" y1="106.0" x2="705.5" y2="140.0" stroke="#bbb" stroke-width="1.2"/>
<rect x="723.0" y="106.0" width="17.5" height="34.0" fill="#f7f9fb"/>
<rect x="740.5" y="106.0" width="17.5" height="34.0" fill="#f7f9fb"/>
<rect x="723.0" y="106.0" width="35.0" height="34.0" fill="none" stroke="#bbb" stroke-width="1.2"/>
<line x1="740.5" y1="106.0" x2="740.5" y2="140.0" stroke="#bbb" stroke-width="1.2"/>
<text x="48.6" y="197.0" font-family="'DejaVu Sans Mono','Lucida Console',Menlo,Consolas,monospace" font-size="11.5" fill="#777" text-anchor="end">to</text>
<rect x="58.6" y="176.0" width="87.4" height="34.0" fill="#1560c0"/>
<rect x="58.6" y="176.0" width="20.0" height="34.0" fill="#0f4b96"/>
<rect x="58.6" y="176.0" width="87.4" height="34.0" fill="none" stroke="#777" stroke-width="1.2"/>
<line x1="78.6" y1="176.0" x2="78.6" y2="210.0" stroke="#777" stroke-width="1.2"/>
<text x="112.3" y="198.0" font-family="'DejaVu Sans Mono','Lucida Console',Menlo,Consolas,monospace" font-size="14" fill="#fff" text-anchor="middle" font-weight="bold">A</text>
<rect x="146.0" y="176.0" width="87.4" height="34.0" fill="#1560c0"/>
<rect x="146.0" y="176.0" width="20.0" height="34.0" fill="#0f4b96"/>
<rect x="146.0" y="176.0" width="87.4" height="34.0" fill="none" stroke="#777" stroke-width="1.2"/>
<line x1="166.0" y1="176.0" x2="166.0" y2="210.0" stroke="#777" stroke-width="1.2"/>
<text x="199.8" y="198.0" font-family="'DejaVu Sans Mono','Lucida Console',Menlo,Consolas,monospace" font-size="14" fill="#fff" text-anchor="middle" font-weight="bold">B</text>
<rect x="233.5" y="176.0" width="87.4" height="34.0" fill="#1560c0"/>
<rect x="233.5" y="176.0" width="20.0" height="34.0" fill="#0f4b96"/>
<rect x="233.5" y="176.0" width="87.4" height="34.0" fill="none" stroke="#777" stroke-width="1.2"/>
<line x1="253.5" y1="176.0" x2="253.5" y2="210.0" stroke="#777" stroke-width="1.2"/>
<text x="287.2" y="198.0" font-family="'DejaVu Sans Mono','Lucida Console',Menlo,Consolas,monospace" font-size="14" fill="#fff" text-anchor="middle" font-weight="bold">C</text>
<rect x="320.9" y="176.0" width="87.4" height="34.0" fill="#1560c0"/>
<rect x="320.9" y="176.0" width="20.0" height="34.0" fill="#0f4b96"/>
<rect x="320.9" y="176.0" width="87.4" height="34.0" fill="none" stroke="#777" stroke-width="1.2"/>
<line x1="340.9" y1="176.0" x2="340.9" y2="210.0" stroke="#777" stroke-width="1.2"/>
<text x="374.6" y="198.0" font-family="'DejaVu Sans Mono','Lucida Console',Menlo,Consolas,monospace" font-size="14" fill="#fff" text-anchor="middle" font-weight="bold">D</text>
<rect x="408.3" y="176.0" width="87.4" height="34.0" fill="#1560c0"/>
<rect x="408.3" y="176.0" width="20.0" height="34.0" fill="#0f4b96"/>
<rect x="408.3" y="176.0" width="87.4" height="34.0" fill="none" stroke="#777" stroke-width="1.2"/>
<line x1="428.3" y1="176.0" x2="428.3" y2="210.0" stroke="#777" stroke-width="1.2"/>
<text x="462.0" y="198.0" font-family="'DejaVu Sans Mono','Lucida Console',Menlo,Consolas,monospace" font-size="14" fill="#fff" text-anchor="middle" font-weight="bold">E</text>
<rect x="495.7" y="176.0" width="87.4" height="34.0" fill="#1560c0"/>
<rect x="495.7" y="176.0" width="20.0" height="34.0" fill="#0f4b96"/>
<rect x="495.7" y="176.0" width="87.4" height="34.0" fill="none" stroke="#777" stroke-width="1.2"/>
<line x1="515.7" y1="176.0" x2="515.7" y2="210.0" stroke="#777" stroke-width="1.2"/>
<text x="549.4" y="198.0" font-family="'DejaVu Sans Mono','Lucida Console',Menlo,Consolas,monospace" font-size="14" fill="#fff" text-anchor="middle" font-weight="bold">F</text>
<rect x="583.2" y="176.0" width="87.4" height="34.0" fill="#1560c0"/>
<rect x="583.2" y="176.0" width="20.0" height="34.0" fill="#0f4b96"/>
<rect x="583.2" y="176.0" width="87.4" height="34.0" fill="none" stroke="#777" stroke-width="1.2"/>
<line x1="603.2" y1="176.0" x2="603.2" y2="210.0" stroke="#777" stroke-width="1.2"/>
<text x="636.9" y="198.0" font-family="'DejaVu Sans Mono','Lucida Console',Menlo,Consolas,monospace" font-size="14" fill="#fff" text-anchor="middle" font-weight="bold">G</text>
<rect x="670.6" y="176.0" width="87.4" height="34.0" fill="#1560c0"/>
<rect x="670.6" y="176.0" width="20.0" height="34.0" fill="#0f4b96"/>
<rect x="670.6" y="176.0" width="87.4" height="34.0" fill="none" stroke="#777" stroke-width="1.2"/>
<line x1="690.6" y1="176.0" x2="690.6" y2="210.0" stroke="#777" stroke-width="1.2"/>
<text x="724.3" y="198.0" font-family="'DejaVu Sans Mono','Lucida Console',Menlo,Consolas,monospace" font-size="14" fill="#fff" text-anchor="middle" font-weight="bold">H</text>
<line x1="68.6" y1="70.0" x2="514.0" y2="105.4" stroke="#cc2222" stroke-width="1.4"/>
<path d="M 513.7 108.7 L 522.0 106.0 L 514.3 102.0 Z" fill="#cc2222"/>
<line x1="539.4" y1="140.0" x2="86.6" y2="175.4" stroke="#cc2222" stroke-width="1.4"/>
<path d="M 86.3 172.0 L 78.6 176.0 L 86.9 178.7 Z" fill="#cc2222"/>
<line x1="156.0" y1="70.0" x2="141.0" y2="98.9" stroke="#cc2222" stroke-width="1.4"/>
<path d="M 138.0 97.4 L 137.3 106.0 L 144.0 100.5 Z" fill="#cc2222"/>
<line x1="154.8" y1="140.0" x2="163.7" y2="168.4" stroke="#cc2222" stroke-width="1.4"/>
<path d="M 160.5 169.4 L 166.0 176.0 L 166.9 167.4 Z" fill="#cc2222"/>
<line x1="243.5" y1="70.0" x2="653.9" y2="105.3" stroke="#cc2222" stroke-width="1.4"/>
<path d="M 653.6 108.7 L 661.8 106.0 L 654.2 102.0 Z" fill="#cc2222"/>
<line x1="679.3" y1="140.0" x2="261.4" y2="175.3" stroke="#cc2222" stroke-width="1.4"/>
<path d="M 261.2 172.0 L 253.5 176.0 L 261.7 178.7 Z" fill="#cc2222"/>
<line x1="330.9" y1="70.0" x2="283.8" y2="101.5" stroke="#cc2222" stroke-width="1.4"/>
<path d="M 282.0 98.8 L 277.2 106.0 L 285.7 104.3 Z" fill="#cc2222"/>
<line x1="294.7" y1="140.0" x2="334.6" y2="171.1" stroke="#cc2222" stroke-width="1.4"/>
<path d="M 332.5 173.7 L 340.9 176.0 L 336.6 168.4 Z" fill="#cc2222"/>
<line x1="418.3" y1="70.0" x2="387.8" y2="100.4" stroke="#cc2222" stroke-width="1.4"/>
<path d="M 385.4 98.0 L 382.1 106.0 L 390.1 102.7 Z" fill="#cc2222"/>
<line x1="399.6" y1="140.0" x2="423.3" y2="169.7" stroke="#cc2222" stroke-width="1.4"/>
<path d="M 420.7 171.8 L 428.3 176.0 L 425.9 167.7 Z" fill="#cc2222"/>
<line x1="505.7" y1="70.0" x2="75.3" y2="105.3" stroke="#cc2222" stroke-width="1.4"/>
<path d="M 75.1 102.0 L 67.4 106.0 L 75.6 108.7 Z" fill="#cc2222"/>
<line x1="84.9" y1="140.0" x2="507.8" y2="175.3" stroke="#cc2222" stroke-width="1.4"/>
<path d="M 507.5 178.7 L 515.7 176.0 L 508.0 172.0 Z" fill="#cc2222"/>
<line x1="593.2" y1="70.0" x2="592.2" y2="98.0" stroke="#cc2222" stroke-width="1.4"/>
<path d="M 588.8 97.9 L 591.9 106.0 L 595.5 98.1 Z" fill="#cc2222"/>
<line x1="609.4" y1="140.0" x2="604.5" y2="168.1" stroke="#cc2222" stroke-width="1.4"/>
<path d="M 601.2 167.5 L 603.2 176.0 L 607.8 168.7 Z" fill="#cc2222"/>
<line x1="680.6" y1="70.0" x2="215.2" y2="105.4" stroke="#cc2222" stroke-width="1.4"/>
<path d="M 215.0 102.0 L 207.2 106.0 L 215.5 108.7 Z" fill="#cc2222"/>
<line x1="224.7" y1="140.0" x2="682.6" y2="175.4" stroke="#cc2222" stroke-width="1.4"/>
<path d="M 682.3 178.7 L 690.6 176.0 L 682.9 172.0 Z" fill="#cc2222"/>
<text x="14.0" y="234.0" font-family="'DejaVu Sans Mono','Lucida Console',Menlo,Consolas,monospace" font-size="11.5" fill="#444" text-anchor="start">20 slots of two pointers to track 8 small nodes, and every lookup lands at an unpredictable address</text>
<line x1="14.0" y1="252.0" x2="758.0" y2="252.0" stroke="#bbb" stroke-width="1.2"/>
<text x="14.0" y="278.0" font-family="'DejaVu Sans Mono','Lucida Console',Menlo,Consolas,monospace" font-size="13" fill="#111" text-anchor="start" font-weight="bold">A forwarding address, written into the header of the block itself</text>
<text x="48.6" y="315.0" font-family="'DejaVu Sans Mono','Lucida Console',Menlo,Consolas,monospace" font-size="11.5" fill="#777" text-anchor="end">from</text>
<rect x="58.6" y="294.0" width="87.4" height="34.0" fill="#eef1f5"/>
<rect x="58.6" y="294.0" width="20.0" height="34.0" fill="#0e8a52"/>
<rect x="58.6" y="294.0" width="87.4" height="34.0" fill="none" stroke="#777" stroke-width="1.2"/>
<line x1="78.6" y1="294.0" x2="78.6" y2="328.0" stroke="#777" stroke-width="1.2"/>
<text x="112.3" y="316.0" font-family="'DejaVu Sans Mono','Lucida Console',Menlo,Consolas,monospace" font-size="14" fill="#111" text-anchor="middle" font-weight="bold">A</text>
<rect x="146.0" y="294.0" width="87.4" height="34.0" fill="#eef1f5"/>
<rect x="146.0" y="294.0" width="20.0" height="34.0" fill="#0e8a52"/>
<rect x="146.0" y="294.0" width="87.4" height="34.0" fill="none" stroke="#777" stroke-width="1.2"/>
<line x1="166.0" y1="294.0" x2="166.0" y2="328.0" stroke="#777" stroke-width="1.2"/>
<text x="199.8" y="316.0" font-family="'DejaVu Sans Mono','Lucida Console',Menlo,Consolas,monospace" font-size="14" fill="#111" text-anchor="middle" font-weight="bold">B</text>
<rect x="233.5" y="294.0" width="87.4" height="34.0" fill="#eef1f5"/>
<rect x="233.5" y="294.0" width="20.0" height="34.0" fill="#0e8a52"/>
<rect x="233.5" y="294.0" width="87.4" height="34.0" fill="none" stroke="#777" stroke-width="1.2"/>
<line x1="253.5" y1="294.0" x2="253.5" y2="328.0" stroke="#777" stroke-width="1.2"/>
<text x="287.2" y="316.0" font-family="'DejaVu Sans Mono','Lucida Console',Menlo,Consolas,monospace" font-size="14" fill="#111" text-anchor="middle" font-weight="bold">C</text>
<rect x="320.9" y="294.0" width="87.4" height="34.0" fill="#eef1f5"/>
<rect x="320.9" y="294.0" width="20.0" height="34.0" fill="#0e8a52"/>
<rect x="320.9" y="294.0" width="87.4" height="34.0" fill="none" stroke="#777" stroke-width="1.2"/>
<line x1="340.9" y1="294.0" x2="340.9" y2="328.0" stroke="#777" stroke-width="1.2"/>
<text x="374.6" y="316.0" font-family="'DejaVu Sans Mono','Lucida Console',Menlo,Consolas,monospace" font-size="14" fill="#111" text-anchor="middle" font-weight="bold">D</text>
<rect x="408.3" y="294.0" width="87.4" height="34.0" fill="#eef1f5"/>
<rect x="408.3" y="294.0" width="20.0" height="34.0" fill="#0e8a52"/>
<rect x="408.3" y="294.0" width="87.4" height="34.0" fill="none" stroke="#777" stroke-width="1.2"/>
<line x1="428.3" y1="294.0" x2="428.3" y2="328.0" stroke="#777" stroke-width="1.2"/>
<text x="462.0" y="316.0" font-family="'DejaVu Sans Mono','Lucida Console',Menlo,Consolas,monospace" font-size="14" fill="#111" text-anchor="middle" font-weight="bold">E</text>
<rect x="495.7" y="294.0" width="87.4" height="34.0" fill="#eef1f5"/>
<rect x="495.7" y="294.0" width="20.0" height="34.0" fill="#0e8a52"/>
<rect x="495.7" y="294.0" width="87.4" height="34.0" fill="none" stroke="#777" stroke-width="1.2"/>
<line x1="515.7" y1="294.0" x2="515.7" y2="328.0" stroke="#777" stroke-width="1.2"/>
<text x="549.4" y="316.0" font-family="'DejaVu Sans Mono','Lucida Console',Menlo,Consolas,monospace" font-size="14" fill="#111" text-anchor="middle" font-weight="bold">F</text>
<rect x="583.2" y="294.0" width="87.4" height="34.0" fill="#eef1f5"/>
<rect x="583.2" y="294.0" width="20.0" height="34.0" fill="#0e8a52"/>
<rect x="583.2" y="294.0" width="87.4" height="34.0" fill="none" stroke="#777" stroke-width="1.2"/>
<line x1="603.2" y1="294.0" x2="603.2" y2="328.0" stroke="#777" stroke-width="1.2"/>
<text x="636.9" y="316.0" font-family="'DejaVu Sans Mono','Lucida Console',Menlo,Consolas,monospace" font-size="14" fill="#111" text-anchor="middle" font-weight="bold">G</text>
<rect x="670.6" y="294.0" width="87.4" height="34.0" fill="#eef1f5"/>
<rect x="670.6" y="294.0" width="20.0" height="34.0" fill="#0e8a52"/>
<rect x="670.6" y="294.0" width="87.4" height="34.0" fill="none" stroke="#777" stroke-width="1.2"/>
<line x1="690.6" y1="294.0" x2="690.6" y2="328.0" stroke="#777" stroke-width="1.2"/>
<text x="724.3" y="316.0" font-family="'DejaVu Sans Mono','Lucida Console',Menlo,Consolas,monospace" font-size="14" fill="#111" text-anchor="middle" font-weight="bold">H</text>
<text x="48.6" y="397.0" font-family="'DejaVu Sans Mono','Lucida Console',Menlo,Consolas,monospace" font-size="11.5" fill="#777" text-anchor="end">to</text>
<rect x="58.6" y="376.0" width="87.4" height="34.0" fill="#1560c0"/>
<rect x="58.6" y="376.0" width="20.0" height="34.0" fill="#0f4b96"/>
<rect x="58.6" y="376.0" width="87.4" height="34.0" fill="none" stroke="#777" stroke-width="1.2"/>
<line x1="78.6" y1="376.0" x2="78.6" y2="410.0" stroke="#777" stroke-width="1.2"/>
<text x="112.3" y="398.0" font-family="'DejaVu Sans Mono','Lucida Console',Menlo,Consolas,monospace" font-size="14" fill="#fff" text-anchor="middle" font-weight="bold">A</text>
<rect x="146.0" y="376.0" width="87.4" height="34.0" fill="#1560c0"/>
<rect x="146.0" y="376.0" width="20.0" height="34.0" fill="#0f4b96"/>
<rect x="146.0" y="376.0" width="87.4" height="34.0" fill="none" stroke="#777" stroke-width="1.2"/>
<line x1="166.0" y1="376.0" x2="166.0" y2="410.0" stroke="#777" stroke-width="1.2"/>
<text x="199.8" y="398.0" font-family="'DejaVu Sans Mono','Lucida Console',Menlo,Consolas,monospace" font-size="14" fill="#fff" text-anchor="middle" font-weight="bold">B</text>
<rect x="233.5" y="376.0" width="87.4" height="34.0" fill="#1560c0"/>
<rect x="233.5" y="376.0" width="20.0" height="34.0" fill="#0f4b96"/>
<rect x="233.5" y="376.0" width="87.4" height="34.0" fill="none" stroke="#777" stroke-width="1.2"/>
<line x1="253.5" y1="376.0" x2="253.5" y2="410.0" stroke="#777" stroke-width="1.2"/>
<text x="287.2" y="398.0" font-family="'DejaVu Sans Mono','Lucida Console',Menlo,Consolas,monospace" font-size="14" fill="#fff" text-anchor="middle" font-weight="bold">C</text>
<rect x="320.9" y="376.0" width="87.4" height="34.0" fill="#cfe0f5"/>
<rect x="320.9" y="376.0" width="20.0" height="34.0" fill="#9dc0ea"/>
<rect x="320.9" y="376.0" width="87.4" height="34.0" fill="none" stroke="#777" stroke-width="1.2"/>
<line x1="340.9" y1="376.0" x2="340.9" y2="410.0" stroke="#777" stroke-width="1.2"/>
<text x="374.6" y="398.0" font-family="'DejaVu Sans Mono','Lucida Console',Menlo,Consolas,monospace" font-size="14" fill="#111" text-anchor="middle" font-weight="bold">D</text>
<rect x="408.3" y="376.0" width="87.4" height="34.0" fill="#cfe0f5"/>
<rect x="408.3" y="376.0" width="20.0" height="34.0" fill="#9dc0ea"/>
<rect x="408.3" y="376.0" width="87.4" height="34.0" fill="none" stroke="#777" stroke-width="1.2"/>
<line x1="428.3" y1="376.0" x2="428.3" y2="410.0" stroke="#777" stroke-width="1.2"/>
<text x="462.0" y="398.0" font-family="'DejaVu Sans Mono','Lucida Console',Menlo,Consolas,monospace" font-size="14" fill="#111" text-anchor="middle" font-weight="bold">E</text>
<rect x="495.7" y="376.0" width="87.4" height="34.0" fill="#cfe0f5"/>
<rect x="495.7" y="376.0" width="20.0" height="34.0" fill="#9dc0ea"/>
<rect x="495.7" y="376.0" width="87.4" height="34.0" fill="none" stroke="#777" stroke-width="1.2"/>
<line x1="515.7" y1="376.0" x2="515.7" y2="410.0" stroke="#777" stroke-width="1.2"/>
<text x="549.4" y="398.0" font-family="'DejaVu Sans Mono','Lucida Console',Menlo,Consolas,monospace" font-size="14" fill="#111" text-anchor="middle" font-weight="bold">F</text>
<rect x="583.2" y="376.0" width="87.4" height="34.0" fill="#cfe0f5"/>
<rect x="583.2" y="376.0" width="20.0" height="34.0" fill="#9dc0ea"/>
<rect x="583.2" y="376.0" width="87.4" height="34.0" fill="none" stroke="#777" stroke-width="1.2"/>
<line x1="603.2" y1="376.0" x2="603.2" y2="410.0" stroke="#777" stroke-width="1.2"/>
<text x="636.9" y="398.0" font-family="'DejaVu Sans Mono','Lucida Console',Menlo,Consolas,monospace" font-size="14" fill="#111" text-anchor="middle" font-weight="bold">G</text>
<rect x="670.6" y="376.0" width="87.4" height="34.0" fill="#cfe0f5"/>
<rect x="670.6" y="376.0" width="20.0" height="34.0" fill="#9dc0ea"/>
<rect x="670.6" y="376.0" width="87.4" height="34.0" fill="none" stroke="#777" stroke-width="1.2"/>
<line x1="690.6" y1="376.0" x2="690.6" y2="410.0" stroke="#777" stroke-width="1.2"/>
<text x="724.3" y="398.0" font-family="'DejaVu Sans Mono','Lucida Console',Menlo,Consolas,monospace" font-size="14" fill="#111" text-anchor="middle" font-weight="bold">H</text>
<line x1="68.6" y1="328.0" x2="76.8" y2="367.2" stroke="#0e8a52" stroke-width="2.0"/>
<path d="M 73.1 368.0 L 78.6 376.0 L 80.5 366.4 Z" fill="#0e8a52"/>
<line x1="156.0" y1="328.0" x2="164.2" y2="367.2" stroke="#0e8a52" stroke-width="2.0"/>
<path d="M 160.5 368.0 L 166.0 376.0 L 167.9 366.4 Z" fill="#0e8a52"/>
<line x1="243.5" y1="328.0" x2="251.6" y2="367.2" stroke="#0e8a52" stroke-width="2.0"/>
<path d="M 247.9 368.0 L 253.5 376.0 L 255.3 366.4 Z" fill="#0e8a52"/>
<line x1="330.9" y1="328.0" x2="339.1" y2="367.2" stroke="#0e8a52" stroke-width="2.0"/>
<path d="M 335.4 368.0 L 340.9 376.0 L 342.8 366.4 Z" fill="#0e8a52"/>
<line x1="418.3" y1="328.0" x2="426.5" y2="367.2" stroke="#0e8a52" stroke-width="2.0"/>
<path d="M 422.8 368.0 L 428.3 376.0 L 430.2 366.4 Z" fill="#0e8a52"/>
<line x1="505.7" y1="328.0" x2="513.9" y2="367.2" stroke="#0e8a52" stroke-width="2.0"/>
<path d="M 510.2 368.0 L 515.7 376.0 L 517.6 366.4 Z" fill="#0e8a52"/>
<line x1="593.2" y1="328.0" x2="601.3" y2="367.2" stroke="#0e8a52" stroke-width="2.0"/>
<path d="M 597.6 368.0 L 603.2 376.0 L 605.0 366.4 Z" fill="#0e8a52"/>
<line x1="680.6" y1="328.0" x2="688.7" y2="367.2" stroke="#0e8a52" stroke-width="2.0"/>
<path d="M 685.0 368.0 L 690.6 376.0 L 692.4 366.4 Z" fill="#0e8a52"/>
<path d="M 320.9 414.0 L 315.4 424.0 L 326.4 424.0 Z" fill="#111"/>
<text x="320.9" y="438.0" font-family="'DejaVu Sans Mono','Lucida Console',Menlo,Consolas,monospace" font-size="11.5" fill="#111" text-anchor="middle">scan</text>
<path d="M 758.0 414.0 L 752.5 424.0 L 763.5 424.0 Z" fill="#111"/>
<text x="757.0" y="438.0" font-family="'DejaVu Sans Mono','Lucida Console',Menlo,Consolas,monospace" font-size="11.5" fill="#111" text-anchor="end">next</text>
<text x="14.0" y="460.0" font-family="'DejaVu Sans Mono','Lucida Console',Menlo,Consolas,monospace" font-size="11.5" fill="#444" text-anchor="start">Nothing outside the two heaps is touched, and the copy is done once scan catches up with next</text>
</svg>
