<svg xmlns="http://www.w3.org/2000/svg" width="780" height="346" viewBox="0 0 780 346">
<rect width="780" height="346" fill="#fff"/>
<text x="123.0" y="30.0" font-family="'DejaVu Sans Mono','Lucida Console',Menlo,Consolas,monospace" font-size="12" fill="#777" text-anchor="middle">1</text>
<text x="267.0" y="30.0" font-family="'DejaVu Sans Mono','Lucida Console',Menlo,Consolas,monospace" font-size="12" fill="#777" text-anchor="middle">5</text>
<text x="411.0" y="30.0" font-family="'DejaVu Sans Mono','Lucida Console',Menlo,Consolas,monospace" font-size="12" fill="#777" text-anchor="middle">9</text>
<text x="555.0" y="30.0" font-family="'DejaVu Sans Mono','Lucida Console',Menlo,Consolas,monospace" font-size="12" fill="#777" text-anchor="middle">13</text>
<text x="93.0" y="65.0" font-family="'DejaVu Sans Mono','Lucida Console',Menlo,Consolas,monospace" font-size="13" fill="#000" text-anchor="end">KICK</text>
<rect x="107.5" y="43.0" width="31.0" height="34.0" fill="#a00" rx="2"/>
<rect x="143.5" y="43.0" width="31.0" height="34.0" fill="#D2D2D2" rx="2" stroke="#999" stroke-width="1.2"/>
<rect x="179.5" y="43.0" width="31.0" height="34.0" fill="#D2D2D2" rx="2" stroke="#999" stroke-width="1.2"/>
<rect x="215.5" y="43.0" width="31.0" height="34.0" fill="#D2D2D2" rx="2" stroke="#999" stroke-width="1.2"/>
<rect x="251.5" y="43.0" width="31.0" height="34.0" fill="#a00" rx="2"/>
<rect x="287.5" y="43.0" width="31.0" height="34.0" fill="#D2D2D2" rx="2" stroke="#999" stroke-width="1.2"/>
<rect x="323.5" y="43.0" width="31.0" height="34.0" fill="#D2D2D2" rx="2" stroke="#999" stroke-width="1.2"/>
<rect x="359.5" y="43.0" width="31.0" height="34.0" fill="#D2D2D2" rx="2" stroke="#999" stroke-width="1.2"/>
<rect x="395.5" y="43.0" width="31.0" height="34.0" fill="#a00" rx="2"/>
<rect x="431.5" y="43.0" width="31.0" height="34.0" fill="#D2D2D2" rx="2" stroke="#999" stroke-width="1.2"/>
<rect x="467.5" y="43.0" width="31.0" height="34.0" fill="#D2D2D2" rx="2" stroke="#999" stroke-width="1.2"/>
<rect x="503.5" y="43.0" width="31.0" height="34.0" fill="#D2D2D2" rx="2" stroke="#999" stroke-width="1.2"/>
<rect x="539.5" y="43.0" width="31.0" height="34.0" fill="#a00" rx="2"/>
<rect x="575.5" y="43.0" width="31.0" height="34.0" fill="#D2D2D2" rx="2" stroke="#999" stroke-width="1.2"/>
<rect x="611.5" y="43.0" width="31.0" height="34.0" fill="#D2D2D2" rx="2" stroke="#999" stroke-width="1.2"/>
<rect x="647.5" y="43.0" width="31.0" height="34.0" fill="#D2D2D2" rx="2" stroke="#999" stroke-width="1.2"/>
<text x="93.0" y="104.0" font-family="'DejaVu Sans Mono','Lucida Console',Menlo,Consolas,monospace" font-size="13" fill="#000" text-anchor="end">SNARE</text>
<rect x="107.5" y="82.0" width="31.0" height="34.0" fill="#D2D2D2" rx="2" stroke="#999" stroke-width="1.2"/>
<rect x="143.5" y="82.0" width="31.0" height="34.0" fill="#D2D2D2" rx="2" stroke="#999" stroke-width="1.2"/>
<rect x="179.5" y="82.0" width="31.0" height="34.0" fill="#D2D2D2" rx="2" stroke="#999" stroke-width="1.2"/>
<rect x="215.5" y="82.0" width="31.0" height="34.0" fill="#D2D2D2" rx="2" stroke="#999" stroke-width="1.2"/>
<rect x="251.5" y="82.0" width="31.0" height="34.0" fill="#a00" rx="2"/>
<rect x="287.5" y="82.0" width="31.0" height="34.0" fill="#D2D2D2" rx="2" stroke="#999" stroke-width="1.2"/>
<rect x="323.5" y="82.0" width="31.0" height="34.0" fill="#D2D2D2" rx="2" stroke="#999" stroke-width="1.2"/>
<rect x="359.5" y="82.0" width="31.0" height="34.0" fill="#D2D2D2" rx="2" stroke="#999" stroke-width="1.2"/>
<rect x="395.5" y="82.0" width="31.0" height="34.0" fill="#D2D2D2" rx="2" stroke="#999" stroke-width="1.2"/>
<rect x="431.5" y="82.0" width="31.0" height="34.0" fill="#D2D2D2" rx="2" stroke="#999" stroke-width="1.2"/>
<rect x="467.5" y="82.0" width="31.0" height="34.0" fill="#D2D2D2" rx="2" stroke="#999" stroke-width="1.2"/>
<rect x="503.5" y="82.0" width="31.0" height="34.0" fill="#D2D2D2" rx="2" stroke="#999" stroke-width="1.2"/>
<rect x="539.5" y="82.0" width="31.0" height="34.0" fill="#a00" rx="2"/>
<rect x="575.5" y="82.0" width="31.0" height="34.0" fill="#D2D2D2" rx="2" stroke="#999" stroke-width="1.2"/>
<rect x="611.5" y="82.0" width="31.0" height="34.0" fill="#D2D2D2" rx="2" stroke="#999" stroke-width="1.2"/>
<rect x="647.5" y="82.0" width="31.0" height="34.0" fill="#D2D2D2" rx="2" stroke="#999" stroke-width="1.2"/>
<text x="93.0" y="143.0" font-family="'DejaVu Sans Mono','Lucida Console',Menlo,Consolas,monospace" font-size="13" fill="#000" text-anchor="end">HAT</text>
<rect x="107.5" y="121.0" width="31.0" height="34.0" fill="#a00" rx="2"/>
<rect x="143.5" y="121.0" width="31.0" height="34.0" fill="#D2D2D2" rx="2" stroke="#999" stroke-width="1.2"/>
<rect x="179.5" y="121.0" width="31.0" height="34.0" fill="#a00" rx="2"/>
<rect x="215.5" y="121.0" width="31.0" height="34.0" fill="#D2D2D2" rx="2" stroke="#999" stroke-width="1.2"/>
<rect x="251.5" y="121.0" width="31.0" height="34.0" fill="#a00" rx="2"/>
<rect x="287.5" y="121.0" width="31.0" height="34.0" fill="#D2D2D2" rx="2" stroke="#999" stroke-width="1.2"/>
<rect x="323.5" y="121.0" width="31.0" height="34.0" fill="#a00" rx="2"/>
<rect x="359.5" y="121.0" width="31.0" height="34.0" fill="#D2D2D2" rx="2" stroke="#999" stroke-width="1.2"/>
<rect x="395.5" y="121.0" width="31.0" height="34.0" fill="#a00" rx="2"/>
<rect x="431.5" y="121.0" width="31.0" height="34.0" fill="#D2D2D2" rx="2" stroke="#999" stroke-width="1.2"/>
<rect x="467.5" y="121.0" width="31.0" height="34.0" fill="#a00" rx="2"/>
<rect x="503.5" y="121.0" width="31.0" height="34.0" fill="#D2D2D2" rx="2" stroke="#999" stroke-width="1.2"/>
<rect x="539.5" y="121.0" width="31.0" height="34.0" fill="#a00" rx="2"/>
<rect x="575.5" y="121.0" width="31.0" height="34.0" fill="#D2D2D2" rx="2" stroke="#999" stroke-width="1.2"/>
<rect x="611.5" y="121.0" width="31.0" height="34.0" fill="#a00" rx="2"/>
<rect x="647.5" y="121.0" width="31.0" height="34.0" fill="#D2D2D2" rx="2" stroke="#999" stroke-width="1.2"/>
<line x1="249.0" y1="37.0" x2="249.0" y2="161.0" stroke="#777" stroke-width="1.2"/>
<line x1="393.0" y1="37.0" x2="393.0" y2="161.0" stroke="#777" stroke-width="1.2"/>
<line x1="537.0" y1="37.0" x2="537.0" y2="161.0" stroke="#777" stroke-width="1.2"/>
<line x1="393.0" y1="172.0" x2="393.0" y2="195.0" stroke="#777" stroke-width="2.2"/>
<path d="M 387.0 194.0 L 393.0 204.0 L 399.0 194.0 Z" fill="#777"/>
<text x="93.0" y="230.0" font-family="'DejaVu Sans Mono','Lucida Console',Menlo,Consolas,monospace" font-size="13" fill="#777" text-anchor="end">KICK</text>
<text x="123.0" y="230.0" font-family="'DejaVu Sans Mono','Lucida Console',Menlo,Consolas,monospace" font-size="15" fill="#a00" text-anchor="middle" font-weight="bold">1</text>
<text x="159.0" y="230.0" font-family="'DejaVu Sans Mono','Lucida Console',Menlo,Consolas,monospace" font-size="15" fill="#777" text-anchor="middle">0</text>
<text x="195.0" y="230.0" font-family="'DejaVu Sans Mono','Lucida Console',Menlo,Consolas,monospace" font-size="15" fill="#777" text-anchor="middle">0</text>
<text x="231.0" y="230.0" font-family="'DejaVu Sans Mono','Lucida Console',Menlo,Consolas,monospace" font-size="15" fill="#777" text-anchor="middle">0</text>
<text x="267.0" y="230.0" font-family="'DejaVu Sans Mono','Lucida Console',Menlo,Consolas,monospace" font-size="15" fill="#a00" text-anchor="middle" font-weight="bold">1</text>
<text x="303.0" y="230.0" font-family="'DejaVu Sans Mono','Lucida Console',Menlo,Consolas,monospace" font-size="15" fill="#777" text-anchor="middle">0</text>
<text x="339.0" y="230.0" font-family="'DejaVu Sans Mono','Lucida Console',Menlo,Consolas,monospace" font-size="15" fill="#777" text-anchor="middle">0</text>
<text x="375.0" y="230.0" font-family="'DejaVu Sans Mono','Lucida Console',Menlo,Consolas,monospace" font-size="15" fill="#777" text-anchor="middle">0</text>
<text x="411.0" y="230.0" font-family="'DejaVu Sans Mono','Lucida Console',Menlo,Consolas,monospace" font-size="15" fill="#a00" text-anchor="middle" font-weight="bold">1</text>
<text x="447.0" y="230.0" font-family="'DejaVu Sans Mono','Lucida Console',Menlo,Consolas,monospace" font-size="15" fill="#777" text-anchor="middle">0</text>
<text x="483.0" y="230.0" font-family="'DejaVu Sans Mono','Lucida Console',Menlo,Consolas,monospace" font-size="15" fill="#777" text-anchor="middle">0</text>
<text x="519.0" y="230.0" font-family="'DejaVu Sans Mono','Lucida Console',Menlo,Consolas,monospace" font-size="15" fill="#777" text-anchor="middle">0</text>
<text x="555.0" y="230.0" font-family="'DejaVu Sans Mono','Lucida Console',Menlo,Consolas,monospace" font-size="15" fill="#a00" text-anchor="middle" font-weight="bold">1</text>
<text x="591.0" y="230.0" font-family="'DejaVu Sans Mono','Lucida Console',Menlo,Consolas,monospace" font-size="15" fill="#777" text-anchor="middle">0</text>
<text x="627.0" y="230.0" font-family="'DejaVu Sans Mono','Lucida Console',Menlo,Consolas,monospace" font-size="15" fill="#777" text-anchor="middle">0</text>
<text x="663.0" y="230.0" font-family="'DejaVu Sans Mono','Lucida Console',Menlo,Consolas,monospace" font-size="15" fill="#777" text-anchor="middle">0</text>
<text x="695.0" y="230.0" font-family="'DejaVu Sans Mono','Lucida Console',Menlo,Consolas,monospace" font-size="12" fill="#444" text-anchor="start">16 bits</text>
<text x="93.0" y="256.0" font-family="'DejaVu Sans Mono','Lucida Console',Menlo,Consolas,monospace" font-size="13" fill="#777" text-anchor="end">SNARE</text>
<text x="123.0" y="256.0" font-family="'DejaVu Sans Mono','Lucida Console',Menlo,Consolas,monospace" font-size="15" fill="#777" text-anchor="middle">0</text>
<text x="159.0" y="256.0" font-family="'DejaVu Sans Mono','Lucida Console',Menlo,Consolas,monospace" font-size="15" fill="#777" text-anchor="middle">0</text>
<text x="195.0" y="256.0" font-family="'DejaVu Sans Mono','Lucida Console',Menlo,Consolas,monospace" font-size="15" fill="#777" text-anchor="middle">0</text>
<text x="231.0" y="256.0" font-family="'DejaVu Sans Mono','Lucida Console',Menlo,Consolas,monospace" font-size="15" fill="#777" text-anchor="middle">0</text>
<text x="267.0" y="256.0" font-family="'DejaVu Sans Mono','Lucida Console',Menlo,Consolas,monospace" font-size="15" fill="#a00" text-anchor="middle" font-weight="bold">1</text>
<text x="303.0" y="256.0" font-family="'DejaVu Sans Mono','Lucida Console',Menlo,Consolas,monospace" font-size="15" fill="#777" text-anchor="middle">0</text>
<text x="339.0" y="256.0" font-family="'DejaVu Sans Mono','Lucida Console',Menlo,Consolas,monospace" font-size="15" fill="#777" text-anchor="middle">0</text>
<text x="375.0" y="256.0" font-family="'DejaVu Sans Mono','Lucida Console',Menlo,Consolas,monospace" font-size="15" fill="#777" text-anchor="middle">0</text>
<text x="411.0" y="256.0" font-family="'DejaVu Sans Mono','Lucida Console',Menlo,Consolas,monospace" font-size="15" fill="#777" text-anchor="middle">0</text>
<text x="447.0" y="256.0" font-family="'DejaVu Sans Mono','Lucida Console',Menlo,Consolas,monospace" font-size="15" fill="#777" text-anchor="middle">0</text>
<text x="483.0" y="256.0" font-family="'DejaVu Sans Mono','Lucida Console',Menlo,Consolas,monospace" font-size="15" fill="#777" text-anchor="middle">0</text>
<text x="519.0" y="256.0" font-family="'DejaVu Sans Mono','Lucida Console',Menlo,Consolas,monospace" font-size="15" fill="#777" text-anchor="middle">0</text>
<text x="555.0" y="256.0" font-family="'DejaVu Sans Mono','Lucida Console',Menlo,Consolas,monospace" font-size="15" fill="#a00" text-anchor="middle" font-weight="bold">1</text>
<text x="591.0" y="256.0" font-family="'DejaVu Sans Mono','Lucida Console',Menlo,Consolas,monospace" font-size="15" fill="#777" text-anchor="middle">0</text>
<text x="627.0" y="256.0" font-family="'DejaVu Sans Mono','Lucida Console',Menlo,Consolas,monospace" font-size="15" fill="#777" text-anchor="middle">0</text>
<text x="663.0" y="256.0" font-family="'DejaVu Sans Mono','Lucida Console',Menlo,Consolas,monospace" font-size="15" fill="#777" text-anchor="middle">0</text>
<text x="695.0" y="256.0" font-family="'DejaVu Sans Mono','Lucida Console',Menlo,Consolas,monospace" font-size="12" fill="#444" text-anchor="start">16 bits</text>
<text x="93.0" y="282.0" font-family="'DejaVu Sans Mono','Lucida Console',Menlo,Consolas,monospace" font-size="13" fill="#777" text-anchor="end">HAT</text>
<text x="123.0" y="282.0" font-family="'DejaVu Sans Mono','Lucida Console',Menlo,Consolas,monospace" font-size="15" fill="#a00" text-anchor="middle" font-weight="bold">1</text>
<text x="159.0" y="282.0" font-family="'DejaVu Sans Mono','Lucida Console',Menlo,Consolas,monospace" font-size="15" fill="#777" text-anchor="middle">0</text>
<text x="195.0" y="282.0" font-family="'DejaVu Sans Mono','Lucida Console',Menlo,Consolas,monospace" font-size="15" fill="#a00" text-anchor="middle" font-weight="bold">1</text>
<text x="231.0" y="282.0" font-family="'DejaVu Sans Mono','Lucida Console',Menlo,Consolas,monospace" font-size="15" fill="#777" text-anchor="middle">0</text>
<text x="267.0" y="282.0" font-family="'DejaVu Sans Mono','Lucida Console',Menlo,Consolas,monospace" font-size="15" fill="#a00" text-anchor="middle" font-weight="bold">1</text>
<text x="303.0" y="282.0" font-family="'DejaVu Sans Mono','Lucida Console',Menlo,Consolas,monospace" font-size="15" fill="#777" text-anchor="middle">0</text>
<text x="339.0" y="282.0" font-family="'DejaVu Sans Mono','Lucida Console',Menlo,Consolas,monospace" font-size="15" fill="#a00" text-anchor="middle" font-weight="bold">1</text>
<text x="375.0" y="282.0" font-family="'DejaVu Sans Mono','Lucida Console',Menlo,Consolas,monospace" font-size="15" fill="#777" text-anchor="middle">0</text>
<text x="411.0" y="282.0" font-family="'DejaVu Sans Mono','Lucida Console',Menlo,Consolas,monospace" font-size="15" fill="#a00" text-anchor="middle" font-weight="bold">1</text>
<text x="447.0" y="282.0" font-family="'DejaVu Sans Mono','Lucida Console',Menlo,Consolas,monospace" font-size="15" fill="#777" text-anchor="middle">0</text>
<text x="483.0" y="282.0" font-family="'DejaVu Sans Mono','Lucida Console',Menlo,Consolas,monospace" font-size="15" fill="#a00" text-anchor="middle" font-weight="bold">1</text>
<text x="519.0" y="282.0" font-family="'DejaVu Sans Mono','Lucida Console',Menlo,Consolas,monospace" font-size="15" fill="#777" text-anchor="middle">0</text>
<text x="555.0" y="282.0" font-family="'DejaVu Sans Mono','Lucida Console',Menlo,Consolas,monospace" font-size="15" fill="#a00" text-anchor="middle" font-weight="bold">1</text>
<text x="591.0" y="282.0" font-family="'DejaVu Sans Mono','Lucida Console',Menlo,Consolas,monospace" font-size="15" fill="#777" text-anchor="middle">0</text>
<text x="627.0" y="282.0" font-family="'DejaVu Sans Mono','Lucida Console',Menlo,Consolas,monospace" font-size="15" fill="#a00" text-anchor="middle" font-weight="bold">1</text>
<text x="663.0" y="282.0" font-family="'DejaVu Sans Mono','Lucida Console',Menlo,Consolas,monospace" font-size="15" fill="#777" text-anchor="middle">0</text>
<text x="695.0" y="282.0" font-family="'DejaVu Sans Mono','Lucida Console',Menlo,Consolas,monospace" font-size="12" fill="#444" text-anchor="start">16 bits</text>
<text x="390.0" y="324.0" font-family="'DejaVu Sans Mono','Lucida Console',Menlo,Consolas,monospace" font-size="13" fill="#000" text-anchor="middle">3 rows x 16 steps = 48 bits</text>
</svg>
